# xmcd
#
# Track frame offsets:
#	150
#	33653
#	54658
#	81058
#	99398
#	126460
#	154413
#	176540
#	193201
#	221228
#	247692
#	263955
#	295317
#
# Disc length: 4362 seconds
#
# Revision: 0
# Processed by: cddbd v1.4PL0 Copyright (c) Steve Scherf et al.
# Submitted via: audiograbber 1.80
#
DISCID=c411080d
DTITLE=Barry White - Collection 2000
DYEAR=1900
DGENRE=
TTITLE0=Don't play games
TTITLE1=Love is the icon
TTITLE2=The longer we make love
TTITLE3=I'm gonna love you just a little more, baby
TTITLE4=Practice what you preach
TTITLE5=Staying power
TTITLE6=Sexy undercover
TTITLE7=Playing your game, baby
TTITLE8=Get up
TTITLE9=Come on
TTITLE10=Let the music play
TTITLE11=Sometimes
TTITLE12=There it is
EXTD=
EXTT0=
EXTT1=
EXTT2=
EXTT3=
EXTT4=
EXTT5=
EXTT6=
EXTT7=
EXTT8=
EXTT9=
EXTT10=
EXTT11=
EXTT12=
PLAYORDER=
